<svg xmlns="http://www.w3.org/2000/svg" xmlns:xlink="http://www.w3.org/1999/xlink" fill="none" version="1.1" width="488" height="116" viewBox="0 0 488 116"><g><path d="M133.291,62.5149Q133.291,62.2648,133.666,62.2648L227.405,62.2648Q227.78,62.2648,227.78,62.5149L227.78,113.152Q227.78,113.527,227.405,113.527L133.666,113.527Q133.291,113.527,133.291,113.152L133.291,62.5149ZM215.031,73.6426L146.039,73.6426L146.039,102.024L215.031,102.024L215.031,73.6426ZM221.156,82.2696Q221.406,82.2696,221.406,82.5197L221.406,93.0222Q221.406,93.2722,221.156,93.2722L139.915,93.2722Q139.665,93.2722,139.665,93.0222L139.665,82.5197Q139.665,82.2696,139.915,82.2696L221.156,82.2696ZM161.162,10.3775Q161.412,10.3775,161.412,10.7526Q161.412,28.5068,153.726,41.885Q146.039,55.2632,128.666,62.2648Q128.541,62.3899,128.416,62.3274Q128.291,62.2648,128.166,62.1398L123.917,51.1372Q123.667,50.8871,124.042,50.7621Q137.79,45.1358,143.352,35.3834Q148.914,25.6311,149.039,10.8776Q149.039,10.3775,149.289,10.3775L161.162,10.3775ZM182.91,26.6314Q183.285,26.6314,183.285,26.8814L183.285,37.5089Q183.285,37.884,182.91,37.884L123.667,37.884Q123.417,37.884,123.417,37.5089L123.417,26.8814Q123.417,26.6314,123.667,26.6314L182.91,26.6314ZM165.537,30.1322Q165.662,30.0072,165.724,30.1322Q165.787,30.2572,165.787,30.3822Q168.037,37.759,172.599,42.5727Q177.161,47.3863,185.035,50.7621Q185.285,51.0122,185.16,51.2622L180.41,62.0148Q180.16,62.3899,179.91,62.2648Q170.036,57.8888,163.35,50.7621Q156.663,43.6354,153.913,33.7581Q153.788,33.508,154.038,33.383L165.537,30.1322ZM139.04,0Q139.29,0,139.29,0.250061L139.29,4.75113L181.66,4.75113Q181.91,4.75113,181.91,5.12622L181.91,15.7538Q181.91,16.0038,181.66,16.0038L127.041,16.0038Q126.791,16.0038,126.729,15.9413Q126.666,15.8788,126.666,15.7538L126.666,0.250061Q126.666,0,127.041,0L139.04,0ZM188.159,4.25101Q188.159,4.00096,188.409,4.00096L233.529,4.00096Q233.779,4.00096,233.779,4.25101L233.779,53.7628Q233.779,54.0129,233.529,54.0129L188.409,54.0129Q188.159,54.0129,188.159,53.7628L188.159,4.25101ZM221.281,16.3789L200.533,16.3789L200.533,41.5099L221.281,41.5099L221.281,16.3789ZM263.276,51.5123Q263.526,51.5123,263.526,51.7623L263.526,67.7662Q263.526,89.8964,259.401,108.276Q259.276,108.651,258.901,108.651L248.527,106.275Q248.277,106.275,248.277,105.9Q252.277,88.3961,252.277,67.7662L252.277,51.7623Q252.277,51.5123,252.527,51.5123L263.276,51.5123ZM295.897,32.3827Q296.272,32.3827,296.272,32.6328L296.272,44.3856Q296.272,44.6357,295.897,44.6357L250.152,44.6357Q249.902,44.6357,249.902,44.3856L249.902,32.6328Q249.902,32.3827,250.152,32.3827L295.897,32.3827ZM294.647,3.37581Q294.897,3.37581,294.897,3.62586L294.897,15.2536Q294.897,15.6287,294.647,15.6287L251.527,15.6287Q251.152,15.6287,251.152,15.2536L251.152,3.62586Q251.152,3.37581,251.527,3.37581L294.647,3.37581ZM282.898,9.50227Q283.148,9.50227,283.148,9.75232L283.148,114.527Q283.148,114.902,282.898,114.902L270.9,114.902Q270.65,114.902,270.65,114.527L270.65,9.75232Q270.65,9.50227,270.9,9.50227L282.898,9.50227ZM298.147,65.1405Q298.522,65.3906,298.272,65.6406L291.648,75.1429Q291.398,75.518,291.273,75.2679L273.65,63.1401Q273.4,62.89,273.525,62.6399L280.149,53.1377Q280.399,52.7626,280.649,53.0126L298.147,65.1405ZM330.643,19.1296Q331.018,19.3796,330.768,19.6297L325.644,29.8821Q325.394,30.2572,325.144,30.1322L300.272,17.3791Q300.022,17.2541,300.147,17.0041L305.396,6.62658Q305.646,6.37652,305.771,6.50155L330.643,19.1296ZM330.018,49.0117Q330.268,49.2617,330.143,49.5118L325.019,59.7643Q324.769,60.1393,324.519,60.0143L299.647,47.2613Q299.397,47.1362,299.522,46.8862L304.771,36.5087Q304.896,36.2586,305.146,36.3837L330.018,49.0117ZM363.139,74.1427Q363.389,74.1427,363.389,74.5178L363.389,86.2706Q363.389,86.6457,363.139,86.6457L298.147,86.6457Q297.897,86.6457,297.897,86.2706L297.897,74.5178Q297.897,74.1427,298.147,74.1427L363.139,74.1427ZM350.141,0.62515Q350.516,0.62515,350.516,0.875205L350.516,114.527Q350.516,114.902,350.141,114.902L338.267,114.902Q337.892,114.902,337.892,114.527L337.892,0.875205Q337.892,0.62515,338.267,0.62515L350.141,0.62515ZM411.009,20.7549Q411.384,20.7549,411.384,21.13L411.384,32.8828Q411.384,33.1329,411.009,33.1329L374.013,33.1329Q373.763,33.1329,373.763,32.8828L373.763,21.13Q373.763,20.7549,374.013,20.7549L411.009,20.7549ZM411.009,57.6387Q411.384,57.6387,411.384,58.0138L411.384,69.7666Q411.384,70.0167,411.009,70.0167L374.013,70.0167Q373.763,70.0167,373.763,69.7666L373.763,58.0138Q373.763,57.6387,374.013,57.6387L411.009,57.6387ZM399.635,0.375089Q399.885,0.375089,399.885,0.62515L399.885,113.402Q399.885,113.527,399.823,113.59Q399.76,113.652,399.635,113.652L376.888,113.652Q376.513,113.652,376.513,113.402L376.513,101.149Q376.513,100.774,376.888,100.774L387.387,100.774L387.387,0.62515Q387.387,0.375089,387.762,0.375089L399.635,0.375089ZM487.25,14.0033Q487.625,14.0033,487.625,14.2534L487.625,25.7561Q487.625,26.1312,487.25,26.1312L415.383,26.1312Q415.133,26.1312,415.133,25.7561L415.133,14.2534Q415.133,14.0033,415.383,14.0033L487.25,14.0033ZM457.504,0.250061Q457.754,0.250061,457.754,0.500116L457.754,48.8867Q457.754,49.1367,457.504,49.1367L445.505,49.1367Q445.13,49.1367,445.13,48.8867L445.13,0.500116Q445.13,0.250061,445.505,0.250061L457.504,0.250061ZM431.257,56.7635Q431.507,56.5135,431.757,56.8886Q440.756,75.7681,454.504,87.3958Q468.252,99.0236,487.625,103.9Q488,104.15,488,104.275L485,115.778Q485,115.903,484.938,115.965Q484.876,116.028,484.75,115.903Q462.753,110.401,446.63,96.8356Q430.507,83.2699,420.508,62.2648Q420.383,62.1398,420.633,61.8897L431.257,56.7635ZM485.25,42.8852Q485.375,42.8852,485.438,42.9477Q485.5,43.0103,485.5,43.2603Q480.126,71.267,462.503,89.5213Q444.88,107.776,416.133,115.903Q416.008,116.028,415.758,115.778L412.634,104.275Q412.509,104.15,412.884,103.9Q434.631,97.6483,448.567,85.7079Q462.503,73.7676,469.127,55.3882L417.633,55.3882Q417.383,55.3882,417.383,55.0131L417.383,43.2603Q417.383,42.8852,417.633,42.8852L485.25,42.8852ZM39.1205,25.9369Q39.3705,25.9369,39.3705,26.312L39.3705,38.1898Q39.3705,38.4399,39.1205,38.4399L24.7472,38.4399Q24.3722,38.4399,24.3722,38.1898L24.3722,26.312Q24.3722,25.9369,24.7472,25.9369L39.1205,25.9369ZM9.74889,18.8102Q9.99886,18.8102,9.99886,19.0603L14.4983,60.1951Q14.4983,60.5702,14.2484,60.5702L4.74946,61.5704Q4.49949,61.5704,4.3745,61.3203L0,20.1855Q0,19.8104,0.249971,19.8104L9.74889,18.8102ZM30.2466,0.805908Q30.4965,0.805908,30.4965,1.181L30.4965,54.0686Q30.4965,72.573,25.3721,87.5766Q20.2477,102.58,9.6239,115.333Q9.37393,115.708,9.24895,115.458L0.499943,107.956Q0.249971,107.706,0.499943,107.581Q9.74889,96.2037,14.0609,83.4506Q18.3729,70.6976,18.3729,54.0686L18.3729,1.181Q18.3729,0.805908,18.6229,0.805908L30.2466,0.805908ZM31.3714,75.1986Q31.6214,74.9486,31.7464,75.3237L47.4946,97.704Q47.6196,97.9541,47.3696,98.2041L38.3706,104.581Q38.1206,104.831,37.8707,104.456L22.2475,82.0753Q22.1225,81.8252,22.3724,81.5752L31.3714,75.1986ZM72.8611,4.93185Q90.2341,4.93185,102.983,2.55642Q103.357,2.30636,103.358,2.80656L105.857,14.5591Q105.857,14.8091,105.795,14.8719Q105.732,14.9344,105.607,14.9343Q92.3587,17.6849,72.8611,17.6849L69.4863,17.6849L69.4863,55.194Q69.4863,86.3264,57.8628,115.833Q57.7378,116.083,57.4877,115.958L46.4891,111.582Q46.1141,111.332,46.3641,111.207Q51.9884,96.5786,54.4882,82.8253Q56.9879,69.0721,56.9878,55.194L56.9878,5.30705Q56.9878,5.18202,57.0503,5.05692Q57.1128,4.93189,57.3627,4.93185L72.8611,4.93185ZM107.232,38.5647Q107.482,38.5647,107.482,38.9399L107.482,50.8179Q107.482,51.068,107.232,51.068L63.987,51.068Q63.737,51.068,63.7372,50.8179L63.7372,38.9399Q63.7372,38.5648,63.987,38.5647L107.232,38.5647ZM95.2334,44.8164Q95.6084,44.8164,95.6085,45.1916L95.6085,115.208Q95.6085,115.458,95.2334,115.458L83.4849,115.458Q83.1099,115.458,83.1098,115.208L83.1098,45.1916Q83.1098,44.8165,83.4849,44.8164L95.2334,44.8164Z" fill="#3D3D3D" fill-opacity="1"/></g></svg>