<?xml version="1.0" encoding="utf-8"?>
<!-- Generator: Adobe Illustrator 27.0.0, SVG Export Plug-In . SVG Version: 6.00 Build 0)  -->
<svg version="1.1" id="图层_1" xmlns="http://www.w3.org/2000/svg" 
xmlns:xlink="http://www.w3.org/1999/xlink" x="0px" y="0px" width="440px" height="100px"
xml:space="preserve">
<style type="text/css">
	.st0{fill:#333333;fill-opacity:0;}
	.st1{fill:#333333;}
	.st2{fill:#1890ff;}
</style>
<g transform="translate(36,79)">
	<g transform="translate(0,0)">
		<g>
			<rect x="-37.7" y="-80.7" class="st0" width="105" height="78.9"/>
			<g>
				<g>
					<path class="st1" d="M13.4-1.7c-16.8,0-33.5-4.4-34.3-4.5c-1.3-0.3-2.1-1.6-1.8-2.9c0.3-1.3,1.6-2.1,2.9-1.8
						c0.2,0,24.1,6.3,42.7,3.9C37.8-9,41.7-9.5,48.8-9.6c4.7,0,6.6-2.1,6.8-3.7c0.2-1.3-0.6-2.6-2.1-3.1c-4.5-1.5-11.2-1.9-14.4-0.8
						c-4,1.3-9.9,0.3-15-2.6c-5.8-3.4-9.9-8.6-11.2-14.7c-0.8-3.9,0.8-8.7,4.5-12.9c4.5-5.3,13.4-10.8,24.4-10
						c2.4,0.2,4.8,0.6,6.9,1.1c6.6,1.3,7.9,1.1,8.6-1.6c-0.5-1.1-4.2-3.6-8.2-4.7c-8.9-2.6-16-3.9-19.7-3.4
						c-1.5,0.3-13.7,6-17.5,8.4c-1.1,0.8-2.6,0.5-3.4-0.6s-0.5-2.6,0.6-3.4c3.6-2.3,17.3-8.9,19.6-9.1c5.5-0.8,14.9,1.5,21.7,3.6
						c0.2,0,13.3,4,11.6,10.3c-1.9,7.8-8.9,6.5-14.2,5.5c-2.1-0.3-4.2-0.8-6.3-1c-9.2-0.6-16.6,3.9-20.4,8.2
						c-2.6,3.1-3.9,6.5-3.4,8.7c1.5,6.5,6.1,10,8.9,11.5c4.5,2.6,8.9,2.9,11.2,2.3c4.7-1.6,12.4-0.8,17.3,0.8c3.7,1.1,6,4.7,5.3,8.4
						c-0.5,3.6-3.9,7.8-11.6,7.8C42-4.5,38.1-4,23.6-2.1C20.3-1.9,16.8-1.7,13.4-1.7z"/>
					<path class="st1" d="M-1.3-57.3c-0.5,0-0.8-0.2-1.3-0.3c-1.1-0.6-1.5-2.1-0.8-3.4c5.8-9.9,24.9-19.1,28-19.6
						c5.2-0.6,10.5,4.8,14.1,8.6c0.6,0.6,1.3,1.3,1.8,1.8c1,1,1,2.4,0.2,3.4c-1,1-2.4,1-3.4,0.2c-0.5-0.5-1.1-1.1-1.9-1.9
						c-2.3-2.4-7.1-7.4-9.9-7.1C23.2-75.3,6-66.9,0.9-58.5C0.3-57.8-0.5-57.3-1.3-57.3z"/>
					<path class="st1" d="M-35.3-32.6c-0.3,0-0.5,0-0.8-0.2c-1.3-0.5-1.9-1.8-1.5-3.1c0.2-0.6,5.8-16,15.7-25.5
						c1.5-1.5,9.9-8.6,19.2-14.1c8.1-4.8,10.2-4.4,11-4.2c3.1,0.8,6.6,4.7,7.3,5.5c0.8,1,0.8,2.6-0.2,3.4s-2.6,0.8-3.4-0.2
						c-1.5-1.6-3.6-3.4-4.7-3.9c-0.8,0.2-3.4,1.1-7.6,3.6c-8.9,5.2-17,12-18.3,13.4c-9.1,8.7-14.4,23.6-14.4,23.6
						C-33.3-33.2-34.3-32.6-35.3-32.6z"/>
				</g>
				<g>
					<path class="st1" d="M66.7-37.6l-4-1.8l-0.8-2.7l2.6-4.2L62-49.2l-0.5,0.2l-4,1.6l-2.6-1.3l-1.1-4.8l-3.9-0.3l-0.3,0.5
						l-1.8,3.9l-2.7,0.8l-4.2-2.6L38-48.9l0.2,0.5l1.6,4l-1.3,2.6l-4.8,1.1l-0.3,3.9l0.5,0.2l4,1.8l0.8,2.7L36-27.9l2.4,2.9l0.5-0.2
						l4-1.6l2.6,1.3l1.1,4.8l3.9,0.3l0.3-0.5l1.8-3.9l2.7-0.8l4.2,2.6l3.1-2.4l-0.2-0.5l-1.6-4l1.3-2.6l4.8-1.1l0.3-3.9L66.7-37.6z
						 M53.6-33.6c-2.1,1.8-5.2,1.5-6.9-0.6c-1.8-2.1-1.5-5.2,0.6-6.9c2.1-1.8,5.2-1.5,6.9,0.6C56.1-38.4,55.7-35.3,53.6-33.6z"/>
				</g>
			</g>
		</g>
	</g>
	<g transform="translate(67,1.3638782501220703)">
		<g transform="translate(0,0)">
			<g transform="scale(1)">
				<g>
					<path class="st1" d="M33.8-71.8v-6.1h8.9v6.1c0,0,0,0,0,0l0,0h16.7v6.9H42.6v10.6H59v6.9H42.6v10.8h17.7v6.9H14.6l-2-6.9h21.1
						v-10.8H16.4c0,0-0.2-0.5-0.5-1.6l0,0c-0.1-0.1-0.6-1.9-1.6-5.3l0,0h19.4v-10.6h-8.7c-1.6,2.6-3.8,4.4-6.7,5.5l0,0
						c-1.6,0.6-3.3,0.9-5.1,0.9l0,0v-8c0.7,0,1.5-0.5,2.5-1.4l0,0c1.1-1.2,1.8-2.7,2.3-4.5l0,0c0.3-1.4,0.5-2.6,0.5-3.8l0,0v-0.3H28
						v0.2c0,1.5-0.1,3-0.4,4.5l0,0H33.8z M82.4-79.6L82.4-79.6h10.4c0.2,0.5,0.5,1.2,0.8,2.1l0,0h19.8v7.9H66.6c0,0-0.2-0.6-0.5-1.8
						l0,0c-0.1-0.2-0.6-2.2-1.6-6.1l0,0h18.7C82.9-78.4,82.7-79.1,82.4-79.6z M73.5-67.8L73.5-67.8h9.3c0.2,0.3,0.5,1.1,0.9,2.3l0,0
						c0.8,2.4,1.3,3.7,1.3,4l0,0h10.6c0,0,0.1-0.4,0.3-1.1l0,0c0.6-1.9,1.2-3.6,1.9-5.1l0,0h9.3c-0.6,1.5-1.3,3.6-2.1,6.2l0,0h7.6
						v7.9H75.8v5c0,6.3-0.3,10.4-1,12.2l0,0c-0.1,0.5-0.4,1.4-1,2.6l0,0c-1.6,2.8-4.6,4.2-9,4.2l0,0h-0.2v-7.9
						c0.4-0.1,0.7-0.3,1.1-0.6l0,0c0.3-0.4,0.5-0.8,0.6-1.4l0,0c0.5-1.5,0.7-5.1,0.7-10.9l0,0v-11.1h8.6v0
						C74.8-64.5,74.1-66.6,73.5-67.8z M120.6-75.4v-4.2h9.3v4.2h3.8v7.9h-3.8v7.9c0.8-0.1,1.9-0.3,3.4-0.5l0,0v8.4
						c-0.9,0.1-2,0.3-3.4,0.6l0,0v3c0,4.6,0,10.8,0,18.5l0,0h-10.6c0-0.1-0.7-2.5-2-7.4l0,0h3.2v-11h0l-3.3,1.5v0c0-1.4,0-4.2,0-8.4
						l0,0c0.4-0.2,1.5-0.7,3.4-1.5l0,0v-11h-1.5c0,0-0.2-0.5-0.4-1.5l0,0c0-0.1-0.6-2.2-1.6-6.3l0,0H120.6z M140.3-73.8v-5.8h8.9
						v5.8H163v35.7h2.9v8.4h-12.3v-36.2h-4.5v13.6l0,0.1c0.8,0.5,1.7,1.3,2.6,2.3l0,0l0.4,0.5c0,4.8,0,7.9,0,9.3l0,0
						c-1.2-1.1-2.6-2.2-4-3.3l0,0c0,0-0.1,0.3-0.3,0.9l0,0c-0.6,2.1-1.2,3.8-1.9,5.1l0,0c-2.6,4.9-6.4,7.4-11.5,7.4l0,0h0v-7.9
						c0.5-0.1,1.1-0.4,1.8-1.1l0,0c0.7-0.7,1.2-1.4,1.5-1.9l0,0c0.2-0.2,0.5-0.8,0.9-1.7l0,0c0.3-0.7,0.6-1.7,0.9-3l0,0
						c0.4-1.8,0.5-3,0.5-3.4l0,0c-1.4-0.8-2.6-1.3-3.7-1.7l0,0c-0.1-0.1-0.2-0.1-0.4-0.1l0,0v-8.9c1,0.4,2.3,1,4.1,1.8l0,0
						c0,0,0.1,0.1,0.2,0.1l0,0v-8.2h-3.1l-2-7.9v0H140.3z M176.4-79.6L176.4-79.6h8.9l0,0.2v0.1c0,2-0.5,4-1.5,6l0,0
						c-1.7,3.3-4.5,5.7-8.3,7.2l0,0c-2,0.8-4,1.2-5.9,1.2l0,0v0c0-3.8,0-6.3,0-7.7l0,0c0.6-0.1,1.1-0.2,1.3-0.3l0,0
						c0.7-0.3,1.5-0.8,2.4-1.5l0,0C175.4-76.2,176.4-77.9,176.4-79.6z M188.4-79.1L188.4-79.1h28.6v7.4h-26.5
						C190.4-71.7,189.7-74.2,188.4-79.1z M176.3-65.7l0-0.1h8.8l0.1,0l0,0.2v0.1c0,2.7-0.8,5.3-2.5,7.7l0,0v28.1h-8.9v-22.1
						c-1.4,0.4-2.8,0.6-4.2,0.6l0,0h0c0-3.6,0-6.1,0-7.7l0,0c0.9,0,2.1-0.6,3.5-1.6l0,0c0.9-0.7,1.5-1.3,1.9-1.9l0,0
						C175.9-63.6,176.3-64.7,176.3-65.7L176.3-65.7L176.3-65.7z M186.9-64.8L186.9-64.8h31.6v7.4h-7.2v27.7h-13.8
						c-0.1-0.3-0.8-2.8-2-7.4l0,0h6.9c0,0,0.1,0,0.1-0.1l0,0v-20.2h-13.4c-0.1,0-0.2-0.6-0.5-1.8l0,0
						C188.4-59.2,187.9-61.1,186.9-64.8z M269.1-79.3L269.1-79.3v6.7c-4.3,0.5-8.9,0.8-13.8,1.1l0,0c-1.8,0.1-3.6,0.2-5.6,0.2l0,0
						c-3,2-6.2,4.1-9.5,6.1l0,0h7.1c0.1,0,1.2-0.6,3.3-1.9l0,0c1.4-0.9,2.4-1.6,3-2l0,0h12.8c-0.7,0.7-1.6,1.5-2.8,2.4l0,0
						c-3.5,2.7-7.4,5.3-11.8,7.8l0,0c-4,2.4-7.6,4.5-10.7,6.1l0,0v0h18.5c-0.8-2.8-1.6-4.9-2.3-6.5l0,0h9.3c0.3,0.3,0.7,1.3,1.3,2.8
						l0,0c1.7,4.9,2.5,8.2,2.5,9.9l0,0v0.2H251v16.6h-11.3l-2-6.4h4.4v-10.2h-19.4v-6.4c1.3-0.4,3.3-1.2,5.8-2.4l0,0
						c1.5-0.7,3.9-1.9,7.1-3.6l0,0v0h-12.7c0-1,0-1.9,0-2.5l0,0V-65c0,0,0.5-0.2,1.4-0.5l0,0c2.7-1.2,5.9-2.8,9.4-4.9l0,0
						c0.6-0.4,0.9-0.5,0.9-0.5l0,0v0h-0.1c-3.1,0-6.8-0.1-11.2-0.2l0,0v-6.6c3.6,0.1,6.9,0.2,9.9,0.2l0,0h2.3
						C246.6-77.6,257.7-78.1,269.1-79.3z M227.7-42.6v-1.6h8.7c0,0,0.1,0,0.1,0.1l0,0v1.7c0,4.1-1,7.1-2.9,9l0,0
						c-2.3,2.2-5.7,3.3-10.3,3.3l0,0h-0.4v-6.9c0.3,0,1-0.2,1.9-0.5l0,0c1.2-0.5,2.1-1.3,2.5-2.4l0,0
						C227.6-40.7,227.7-41.5,227.7-42.6L227.7-42.6z M255.3-42.2v-2h8.8v1.8c0,2.6,1.1,4.3,3.4,5l0,0c0.4,0.1,0.9,0.2,1.4,0.3l0,0
						v6.9h-0.4c-6.5,0-10.6-2.1-12.3-6.4l0,0C255.6-38.2,255.3-40.1,255.3-42.2L255.3-42.2z M302.3-79.6L302.3-79.6l9.8,0
						c0.3,0.3,0.6,0.8,1,1.5l0,0c0.3,0.6,0.6,1.2,0.8,1.8l0,0h9.2v6.9h-16.2c-0.5,1.9-1.1,3.7-1.8,5.2l0,0c-0.8,1.7-1.4,3-2,3.9l0,0
						v0h11.7c-0.3-1.5-0.6-2.8-0.9-3.9l0,0l-0.5-1.3h7.8c0.2,0.1,0.3,0.5,0.6,1.1l0,0c0.2,0.5,0.5,1.6,0.8,3.3l0,0
						c0.5,3,0.7,5.6,0.7,7.8l0,0v0h-3.6v17.3h3.7v6.4h-12.6v-23.7h-4.8v10.9c0,5.9-2,9.8-6.1,11.6l0,0c-1.7,0.8-3.7,1.2-5.8,1.2l0,0
						H294v-7.4c0.4,0,1-0.4,1.7-1.1l0,0c1-1.1,1.5-2.5,1.5-4.3l0,0v-11h-3.7c0,0-0.1,0-0.1-0.1l0,0v-6.9c0.6-0.6,1.1-1.3,1.6-2l0,0
						c0.9-1.6,1.9-3.7,2.9-6.3l0,0c0-0.1,0.1-0.3,0.2-0.7l0,0h-3.6c0,0-0.4-1.2-1-3.5l0,0c0-0.1-0.4-1.2-1-3.4l0,0H304
						C303.6-77.3,303-78.4,302.3-79.6L302.3-79.6z M282.3-79.5L282.3-79.5c0.2,0,0.3,0,0.4,0l0,0h9.1c0,0,0.1,0,0.1,0.1l0,0
						c-0.2,1.3-0.5,2.6-1,4l0,0c-1.2,3.3-2.9,6.7-5,10l0,0h5.4v7.8c-0.3,1.1-0.7,2.2-1.1,3.1l0,0c-0.6,1.4-1.4,2.9-2.4,4.4l0,0
						l-1,1.4h4.6v7.9h-16.6v-7.9c0.4-0.4,0.9-0.7,1.3-1.1l0,0c1.8-1.9,3.1-3.3,3.8-4.4l0,0c1.1-1.5,1.7-2.5,1.9-3.2l0,0h-6.9
						c0-0.1,0-0.1,0-0.1l0,0c0-0.2,0-0.3,0-0.4l0,0v-7.2c0.6-0.7,1.2-1.6,1.9-2.6l0,0c2.6-4.2,4.4-7.9,5.4-11.1l0,0
						C282.2-79.3,282.3-79.4,282.3-79.5z M274.7-37.5L274.7-37.5h16.6v7.3h-14.6C276.7-30.3,276-32.7,274.7-37.5z"/>
				</g>
			</g>
		</g>
		<g transform="translate(-0.43500518798828125,34.52000045776367)">
			<g transform="translate(0,0)">
				<g transform="scale(1)">
					<path class="st2" d="M17.7-51.9h-3.6v4.6h3.5c1.8,0,2.7-0.8,2.7-2.4l0,0C20.3-51.1,19.4-51.9,17.7-51.9L17.7-51.9z M18.3-45.7
						h-4.2v5.5h-1.8v-13.1h6c2.5,0.1,3.8,1.3,3.9,3.7l0,0C22-47.2,20.7-45.8,18.3-45.7L18.3-45.7z M30.6-45.9h-4.3v5.7h-1.8v-13.1
						h6.1c2.9,0,4.4,1.2,4.4,3.5l0,0c0,1.4-0.6,2.5-1.9,3.2l0,0c1.1,0.3,1.6,1.1,1.6,2.5l0,0l0.2,2.4c0,0.7,0.2,1.1,0.6,1.3l0,0v0.3
						h-2.2c-0.1-0.6-0.2-1.7-0.3-3.3l0,0C33-45.1,32.2-45.9,30.6-45.9L30.6-45.9z M30.7-51.9h-4.4v4.5h4.2c1.8,0,2.6-0.8,2.6-2.3
						l0,0C33.1-51.2,32.3-51.9,30.7-51.9L30.7-51.9z M47.9-46.7L47.9-46.7c-0.2-3.4-1.7-5.3-4.6-5.5l0,0c-2.9,0.2-4.5,2-4.6,5.5l0,0
						c0.1,3.4,1.7,5.2,4.6,5.3l0,0C46.2-41.6,47.7-43.4,47.9-46.7z M49.7-46.7L49.7-46.7c-0.3,4.4-2.4,6.6-6.4,6.7l0,0
						c-4-0.1-6.2-2.4-6.5-6.7l0,0c0.2-4.6,2.4-6.9,6.5-7l0,0C47.3-53.6,49.4-51.2,49.7-46.7z M57.2-40.2h-5.3v-13.1h5.4
						c3.5,0.2,5.4,2.3,5.5,6.4l0,0C62.6-42.6,60.7-40.3,57.2-40.2L57.2-40.2z M57-51.9h-3.3v10.2h3.4c2.5-0.1,3.8-1.8,3.9-5.1l0,0
						C60.9-50.1,59.6-51.8,57-51.9L57-51.9z M73.7-45.1v-8.2h1.8v8.5c-0.1,3.2-1.9,4.8-5.4,4.9l0,0c-3.2-0.1-4.9-1.6-5-4.6l0,0v-8.8
						h1.8v8.2c0,2.4,1.1,3.6,3.3,3.7l0,0C72.5-41.5,73.7-42.7,73.7-45.1L73.7-45.1z M89.2-49.5L89.2-49.5h-1.7
						c-0.4-1.8-1.7-2.7-3.7-2.7l0,0c-2.8,0.2-4.2,1.9-4.3,5.3l0,0c0,3.6,1.5,5.4,4.4,5.4l0,0c2,0,3.3-1.3,3.7-3.7l0,0h1.7
						c-0.5,3.3-2.5,5-5.8,5.1l0,0c-3.8-0.1-5.8-2.4-5.9-6.8l0,0c0.2-4.4,2.3-6.7,6.2-6.9l0,0C86.9-53.6,88.7-52.2,89.2-49.5z
						 M94.8-51.8h-4.4v-1.5H101v1.5h-4.4v11.6h-1.7V-51.8z M102.8-53.3h1.8v13.1h-1.8V-53.3z M118-46.7L118-46.7
						c-0.2-3.4-1.7-5.3-4.6-5.5l0,0c-2.9,0.2-4.4,2-4.6,5.5l0,0c0.1,3.4,1.7,5.2,4.6,5.3l0,0C116.3-41.6,117.8-43.4,118-46.7z
						 M119.8-46.7L119.8-46.7c-0.3,4.4-2.4,6.6-6.4,6.7l0,0c-4-0.1-6.2-2.4-6.5-6.7l0,0c0.2-4.6,2.4-6.9,6.5-7l0,0
						C117.4-53.6,119.5-51.2,119.8-46.7z M124.1-53.3l6.6,10.6v-10.6h1.7v13.1h-2l-6.7-10.6h-0.1v10.6h-1.7v-13.1H124.1z
						 M142.2-41.8h7.9v1.6h-9.7v-13.1h9.5v1.5h-7.7v4.1h7.2v1.6h-7.2V-41.8z M162.8-53.3l-4.4,6.4l4.7,6.7h-2.2l-3.6-5.4l-3.6,5.4
						h-2.2l4.7-6.7l-4.4-6.4h2.2l3.3,5l3.4-5H162.8z M166.6-41.8h7.9v1.6h-9.7v-13.1h9.6v1.5h-7.8v4.1h7.2v1.6h-7.2V-41.8z
						 M187.8-49.5L187.8-49.5h-1.7c-0.4-1.8-1.7-2.7-3.7-2.7l0,0c-2.8,0.2-4.2,1.9-4.3,5.3l0,0c0,3.6,1.5,5.4,4.4,5.4l0,0
						c2,0,3.3-1.3,3.7-3.7l0,0h1.7c-0.5,3.3-2.5,5-5.8,5.1l0,0c-3.8-0.1-5.8-2.4-5.9-6.8l0,0c0.2-4.4,2.3-6.7,6.2-6.9l0,0
						C185.5-53.6,187.3-52.2,187.8-49.5z M198.7-45.1v-8.2h1.8v8.5c-0.1,3.2-1.9,4.8-5.4,4.9l0,0c-3.2-0.1-4.9-1.6-5-4.6l0,0v-8.8
						h1.8v8.2c0,2.4,1.1,3.6,3.3,3.7l0,0C197.6-41.5,198.7-42.7,198.7-45.1L198.7-45.1z M206.6-51.8h-4.5v-1.5h10.6v1.5h-4.4v11.6
						h-1.7V-51.8z M214.7-53.3h1.8v13.1h-1.8V-53.3z M229.9-46.7L229.9-46.7c-0.2-3.4-1.7-5.3-4.6-5.5l0,0c-2.9,0.2-4.5,2-4.6,5.5
						l0,0c0.1,3.4,1.7,5.2,4.6,5.3l0,0C228.2-41.6,229.7-43.4,229.9-46.7z M231.7-46.7L231.7-46.7c-0.3,4.4-2.4,6.6-6.4,6.7l0,0
						c-4-0.1-6.2-2.4-6.5-6.7l0,0c0.2-4.6,2.4-6.9,6.5-7l0,0C229.3-53.6,231.4-51.2,231.7-46.7z M235.9-53.3l6.6,10.6v-10.6h1.7
						v13.1h-2l-6.7-10.6h-0.1v10.6h-1.7v-13.1H235.9z M261.7-49.5L261.7-49.5H260c-0.1-1.7-1.2-2.6-3.3-2.7l0,0
						c-2,0-2.9,0.8-2.9,2.3l0,0c0,1,0.5,1.5,1.6,1.7l0,0l3.7,0.9c2,0.5,2.9,1.7,2.9,3.6l0,0c0,2.4-1.8,3.7-5.2,3.8l0,0
						c-1.9,0-3.2-0.4-4-1.1l0,0c-1-0.7-1.4-1.8-1.4-3.3l0,0h1.7c0,2,1.2,3,3.6,3.1l0,0c2.3,0,3.5-0.8,3.5-2.2l0,0
						c0.2-1.2-0.8-2-2.9-2.4l0,0l-2.7-0.6c-1.9-0.5-2.8-1.6-2.8-3.2l0,0c0.1-2.6,1.7-3.9,4.6-4l0,0
						C259.9-53.7,261.6-52.3,261.7-49.5z M274.9-53.3l-5,7.8v5.3h-1.8v-5.3l-4.9-7.8h2.1L269-47l3.8-6.3H274.9z M286.1-49.5
						L286.1-49.5h-1.6c-0.1-1.7-1.2-2.6-3.3-2.7l0,0c-2,0-3,0.8-3,2.3l0,0c0,1,0.5,1.5,1.6,1.7l0,0l3.7,0.9c2,0.5,2.9,1.7,2.9,3.6
						l0,0c0,2.4-1.8,3.7-5.2,3.8l0,0c-1.9,0-3.2-0.4-4-1.1l0,0c-1-0.7-1.4-1.8-1.4-3.3l0,0h1.7c0,2,1.2,3,3.6,3.1l0,0
						c2.3,0,3.5-0.8,3.5-2.2l0,0c0.2-1.2-0.8-2-2.9-2.4l0,0l-2.7-0.6c-1.9-0.5-2.8-1.6-2.8-3.2l0,0c0.1-2.6,1.7-3.9,4.6-4l0,0
						C284.3-53.7,286-52.3,286.1-49.5z M292.1-51.8h-4.4v-1.5h10.6v1.5h-4.4v11.6h-1.7V-51.8z M301.8-41.8h7.9v1.6H300v-13.1h9.5
						v1.5h-7.8v4.1h7.2v1.6h-7.2V-41.8z M324.6-53.3v13.1h-1.7V-48c0-0.7,0-1.8,0-3.3l0,0l-3.7,11h-1.8l-3.7-11h-0.1
						c0,0.5,0,1.3,0.1,2.4l0,0c0,0.5,0,0.8,0,0.9l0,0v7.8h-1.8v-13.1h2.6l3.8,11.1l3.7-11.1H324.6z"/>
				</g>
			</g>
		</g>
	</g>
</g>
</svg>
